# xmcd CD database file
#
# Track frame offsets:
#	150
#	12847
#	28253
#	40646
#	57063
#	73517
#	87951
#	102841
#	118574
#	136480
#	155677
#	171389
#	195889
#	216286
#	228611
#	238973
#	253160
#	273065
#	284939
#	309573
#
# Disc length: 4269 seconds
#
# Revision: 2
# Processed by: cddbd v1.5.2PL0 Copyright (c) Steve Scherf et al.
# Submitted via: CDex 1.70beta2
#
DISCID=2410ab14
DTITLE=Jazz in Paris - Disc 1 - The Man I Love
DYEAR=1900
DGENRE=Jazz
TTITLE0=Miles Davis Quartet - (générique) Ascenseur pour l'échafaud
TTITLE1=Bernard Zacharias and ses solistes - The Man I love
TTITLE2=Blossom Dearie Trio - The Continental
TTITLE3=Hubert Fol Quartet - They can't take that Away from Me
TTITLE4=Henri Salvador - Stompin' at the Savoy
TTITLE5=Django Reinhardt and son Orchestre - Fine and Dandy
TTITLE6=Pierre Michelot and son Orchestre - Cherokee
TTITLE7=Sonny Cris Quartet - This can't be Love
TTITLE8=Jack Diéval and le JACE All stars - The Nearness of You
TTITLE9=Don Byas Quartet - Laura
TTITLE10=Buddy Banks Trio - Yesterdays
TTITLE11=Stéphane Grappelli Quintet - My Heart belongs to Daddy
TTITLE12=Earl Hines Trio - No Greater Love
TTITLE13=Andy and the Bey Sisters - Scoubidou
TTITLE14=Bernard Pfeiffer and His Saint-Germain-des-Près Orchestra - Who Is me ?
TTITLE15=Henri Crolla, sa Guitare and son Ensemble - Begin the Beguine
TTITLE16=Dizzy Gillespie Quartet - Blue moon
TTITLE17=Mary lou Williams Trio - Carioca
TTITLE18=Art Simmons Quartet - What is this thing Called Love ?
TTITLE19=Sammy Price - Baby won't you please come Home ?
EXTD=
EXTT0=
EXTT1=
EXTT2=
EXTT3=
EXTT4=
EXTT5=
EXTT6=
EXTT7=
EXTT8=
EXTT9=
EXTT10=
EXTT11=
EXTT12=
EXTT13=
EXTT14=
EXTT15=
EXTT16=
EXTT17=
EXTT18=
EXTT19=
PLAYORDER=
